# xmcd
#
# Track frame offsets:
#	150
#	11142
#	24127
#	42790
#	68150
#	86755
#	103364
#	117412
#	144026
#	155884
#	172284
#	186795
#	202138
#	217486
#
# Disc length: 3257 seconds
#
# Revision: 0
# Processed by: cddbd v1.5.2PL0 Copyright (c) Steve Scherf et al.
# Submitted via: audiograbber 1.83.01
#
DISCID=d50cb70e
DTITLE=19th Annual Brisbane Blues Festival - Music Sampler
DYEAR=2011
DGENRE=Blues
TTITLE0=The Dillion James Band - Lonesome Blues
TTITLE1=The Dillion James Band - Blus Ain't Nothin - Highway 49
TTITLE2=Mason Rack Band - Purple and Blues
TTITLE3=Mason Rack Band - Hard Goodbye
TTITLE4=Tim Gaze and Rob Grosser - Reason To Cry
TTITLE5=Tim Gaze and Rob Grosser - Playin Da Blues
TTITLE6=Mick Hadley and The Atomic Boogie Band - Ain't Got You
TTITLE7=Mick Hadley and The Atomic Boogie Band - Help Me
TTITLE8=Asa Broomhall - Come To Me
TTITLE9=Asa Broomhall - 66 Gibson Atlas
TTITLE10=Mojo Webb - You Don't Know
TTITLE11=Mojo Webb - Telephone Blues
TTITLE12=Blind Lemon - She Gone Left Me
TTITLE13=Blind Lemon - Drinkers Lament
EXTD=
EXTT0=
EXTT1=
EXTT2=
EXTT3=
EXTT4=
EXTT5=
EXTT6=
EXTT7=
EXTT8=
EXTT9=
EXTT10=
EXTT11=
EXTT12=
EXTT13=
PLAYORDER=
